<svg width="32px" height="32px" viewBox="0 0 32 32" version="1.1" xmlns="http://www.w3.org/2000/svg" xmlns:xlink="http://www.w3.org/1999/xlink">
    <!-- Generator: Sketch 51.3 (57544) - http://www.bohemiancoding.com/sketch -->
    <desc>Created with Sketch.</desc>
    <defs></defs>
    <g id="final" stroke="none" stroke-width="1" fill="none" fill-rule="evenodd">
        <g id="Preview-Data-Summary-" transform="translate(-342.000000, -121.000000)" fill="#FFFFFF">
            <path d="M373.326552,149.056826 L361.325805,137.03508 L373.258211,125.182171 C374.158039,124.290066 374.158039,122.845814 373.258211,121.95599 C372.360661,121.066166 370.902711,121.066166 370.005161,121.95599 L358.088701,133.792927 L345.994554,121.677635 C345.097004,120.774122 343.639054,120.774122 342.741504,121.677635 C341.843954,122.578867 341.843954,124.043653 342.741504,124.944885 L354.817427,137.041924 L342.673163,149.10474 C341.775612,149.996845 341.775612,151.441097 342.673163,152.330921 C343.570713,153.223026 345.028662,153.223026 345.928491,152.330921 L358.056809,140.284077 L370.07578,152.321795 C370.973331,153.225308 372.43128,153.225308 373.32883,152.321795 C374.224103,151.422845 374.224103,149.960339 373.326552,149.056826 Z" id="Shape"></path>
        </g>
    </g>
</svg>