<svg width="48px" height="48px" viewBox="0 0 48 48" version="1.1" xmlns="http://www.w3.org/2000/svg" xmlns:xlink="http://www.w3.org/1999/xlink">
    <!-- Generator: Sketch 51.3 (57544) - http://www.bohemiancoding.com/sketch -->
    <desc>Created with Sketch.</desc>
    <defs></defs>
    <g id="final" stroke="none" stroke-width="1" fill="none" fill-rule="evenodd">
        <g id="Preview-Data-Summary-" transform="translate(-1387.000000, -105.000000)" fill-rule="nonzero">
            <g id="iconfinder_Streamline-22_185042" transform="translate(1387.000000, 105.000000)">
                <path d="M37,48 L0,48 L0,4 L29,4 C29.552,4 30,4.448 30,5 C30,5.552 29.552,6 29,6 L2,6 L2,46 L35,46 L35,24 C35,23.448 35.448,23 36,23 C36.552,23 37,23.448 37,24 L37,48 Z" id="Shape" fill="#FFFFFF"></path>
                <path d="M21.9877097,27 C21.7311824,27 21.4786016,26.9003399 21.2891661,26.710887 C20.9892265,26.4109199 20.9142416,25.9520886 21.1036771,25.572196 L23.8939049,19.9902423 C23.9412638,19.8955158 24.0034223,19.8086833 24.0793939,19.7336915 L42.9173779,0.894967657 C43.5024575,0.308847714 44.2158008,0 44.9784762,0 C46.1752747,0 47.301035,0.773599386 47.7775838,1.92413113 C48.2324264,3.0233527 47.9808323,4.20348646 47.1037063,5.08069291 L28.2667088,23.9194167 C28.1917239,23.9944085 28.1048993,24.0565727 28.0101815,24.1049227 L22.4287393,26.8963929 C22.2886359,26.966451 22.1376795,27 21.9877097,27 Z M25.5889584,21.0154588 L24.1938445,23.8069291 L26.9850589,22.4107006 L45.7085924,3.68545116 C46.0193851,3.37462997 46.1022631,3.03618024 45.9552532,2.67898257 C45.7875238,2.27738187 45.3682004,1.97346782 44.9784762,1.97346782 C44.746615,1.97346782 44.5226469,2.08003508 44.3124918,2.29020941 L25.5889584,21.0154588 Z" id="Shape" fill="#FFFFFF"></path>
                <path d="M43.9648923,8 C43.6997722,8 43.434652,7.89854022 43.2316694,7.69665597 L40.3029205,4.76778134 C39.8990265,4.36297753 39.8990265,3.70763019 40.3029205,3.30282638 C40.70785,2.89905787 41.363401,2.89905787 41.7683306,3.30282638 L44.6970795,6.231701 C45.1009735,6.63650481 45.1009735,7.29185216 44.6970795,7.69665597 C44.4951326,7.89957553 44.2300124,8 43.9648923,8 Z" id="Shape" fill="#000000"></path>
            </g>
        </g>
    </g>
</svg>