<svg width="38px" height="38px" viewBox="0 0 38 38" version="1.1" xmlns="http://www.w3.org/2000/svg" xmlns:xlink="http://www.w3.org/1999/xlink">
    <!-- Generator: Sketch 51.3 (57544) - http://www.bohemiancoding.com/sketch -->
    <desc>Created with Sketch.</desc>
    <defs></defs>
    <g id="final" stroke="none" stroke-width="1" fill="none" fill-rule="evenodd">
        <g id="Operartion-on-Results" transform="translate(-828.000000, -671.000000)">
            <g id="Group-6-Copy-2" transform="translate(828.000000, 671.000000)">
                <circle id="Oval-Copy-2" fill="#FFFFFF" cx="19" cy="19" r="19"></circle>
                <g id="iconfinder_cancel_326554" transform="translate(3.000000, 3.000000)" fill="#FFE14F" fill-rule="nonzero">
                    <path d="M16,0 C7.2,0 0,7.2 0,16 C0,24.8 7.2,32 16,32 C24.8,32 32,24.8 32,16 C32,7.2 24.8,0 16,0 Z M24,21.76 L21.76,24 L16,18.24 L10.24,24 L8,21.76 L13.76,16 L8,10.24 L10.24,8 L16,13.76 L21.76,8 L24,10.24 L18.24,16 L24,21.76 Z" id="Shape"></path>
                </g>
            </g>
        </g>
    </g>
</svg>