<svg width="48px" height="32px" viewBox="0 0 48 32" version="1.1" xmlns="http://www.w3.org/2000/svg" xmlns:xlink="http://www.w3.org/1999/xlink">
    <!-- Generator: Sketch 51.3 (57544) - http://www.bohemiancoding.com/sketch -->
    <desc>Created with Sketch.</desc>
    <defs></defs>
    <g id="final" stroke="none" stroke-width="1" fill="none" fill-rule="evenodd">
        <g id="Preview-Data-Summary-" transform="translate(-1387.000000, -743.000000)" fill="#FFFFFF">
            <g id="iconfinder_Arrow_Forward_1063879" transform="translate(1387.000000, 743.000000)">
                <path d="M48,16.0002726 C48,15.6122154 47.835,15.2415991 47.5605,14.9625467 L32.712,0.430024185 C32.1255,-0.144067864 31.176,-0.142614466 30.591,0.430024185 C30.0045,1.00266284 30.0045,1.9328373 30.591,2.50547595 L42.8805,14.532341 L1.5,14.532341 C0.672,14.532341 0,15.1892767 0,16.0002726 C0,16.8112685 0.672,17.4682042 1.5,17.4682042 L42.879,17.4682042 L30.591,29.4950692 C30.0045,30.0677079 30.006,30.9978824 30.591,31.570521 C31.1775,32.1431597 32.127,32.1431597 32.712,31.570521 L47.5605,17.0379985 C47.841,16.7633063 47.9955,16.385423 48,16.0002726 Z" id="Arrow_Forward"></path>
            </g>
        </g>
    </g>
</svg>