<svg width="32px" height="32px" viewBox="0 0 32 32" version="1.1" xmlns="http://www.w3.org/2000/svg" xmlns:xlink="http://www.w3.org/1999/xlink">
    <!-- Generator: Sketch 51.3 (57544) - http://www.bohemiancoding.com/sketch -->
    <desc>Created with Sketch.</desc>
    <defs></defs>
    <g id="final" stroke="none" stroke-width="1" fill="none" fill-rule="evenodd">
        <g id="Operartion-on-Results" transform="translate(-1310.000000, -323.000000)">
            <g id="Group-12" transform="translate(1310.000000, 323.000000)">
                <circle id="Oval-Copy-4" fill="#FFFFFF" cx="16" cy="16" r="16"></circle>
                <g id="Group-10">
                    <g id="questionmark2"></g>
                </g>
                <path d="M0,16 C0,24.8 7.2,32 16,32 C24.8,32 32,24.8 32,16 C32,7.2 24.8,0 16,0 C7.2,0 0,7.2 0,16 Z M17.6,27.2 L14.4,27.2 L14.4,24 L17.6,24 L17.6,27.2 Z M20.96,14.88 L19.52,16.32 C18.24,17.44 17.6,18.4 17.6,20.8 L14.4,20.8 L14.4,20 C14.4,18.24 15.04,16.64 16.32,15.52 L18.24,13.44 C18.88,12.96 19.2,12.16 19.2,11.2 C19.2,9.44 17.76,8 16,8 C14.24,8 12.8,9.44 12.8,11.2 L9.6,11.2 C9.6,7.68 12.48,4.8 16,4.8 C19.52,4.8 22.4,7.68 22.4,11.2 C22.4,12.64 21.76,13.92 20.96,14.88 Z" id="Shape" fill="#FFC997" fill-rule="nonzero"></path>
            </g>
        </g>
    </g>
</svg>