<svg width="38px" height="38px" viewBox="0 0 38 38" version="1.1" xmlns="http://www.w3.org/2000/svg" xmlns:xlink="http://www.w3.org/1999/xlink">
    <!-- Generator: Sketch 51.3 (57544) - http://www.bohemiancoding.com/sketch -->
    <desc>Created with Sketch.</desc>
    <defs></defs>
    <g id="final" stroke="none" stroke-width="1" fill="none" fill-rule="evenodd">
        <g id="DATA-Summary" transform="translate(-1416.000000, -622.000000)">
            <g id="Group-6" transform="translate(1416.000000, 622.000000)">
                <circle id="Oval-Copy-4" fill="#FFFFFF" cx="19" cy="19" r="19"></circle>
                <path d="M3,19 C3,27.8 10.2,35 19,35 C27.8,35 35,27.8 35,19 C35,10.2 27.8,3 19,3 C10.2,3 3,10.2 3,19 Z M20.6,30.2 L17.4,30.2 L17.4,27 L20.6,27 L20.6,30.2 Z M23.96,17.88 L22.52,19.32 C21.24,20.44 20.6,21.4 20.6,23.8 L17.4,23.8 L17.4,23 C17.4,21.24 18.04,19.64 19.32,18.52 L21.24,16.44 C21.88,15.96 22.2,15.16 22.2,14.2 C22.2,12.44 20.76,11 19,11 C17.24,11 15.8,12.44 15.8,14.2 L12.6,14.2 C12.6,10.68 15.48,7.8 19,7.8 C22.52,7.8 25.4,10.68 25.4,14.2 C25.4,15.64 24.76,16.92 23.96,17.88 Z" id="Shape" fill="#FFC997" fill-rule="nonzero"></path>
            </g>
        </g>
    </g>
</svg>