<svg width="47px" height="32px" viewBox="0 0 47 32" version="1.1" xmlns="http://www.w3.org/2000/svg" xmlns:xlink="http://www.w3.org/1999/xlink">
    <!-- Generator: Sketch 51.3 (57544) - http://www.bohemiancoding.com/sketch -->
    <desc>Created with Sketch.</desc>
    <defs></defs>
    <g id="final" stroke="none" stroke-width="1" fill="none" fill-rule="evenodd">
        <g id="Preview-Data-Summary-" transform="translate(-342.000000, -743.000000)" fill="#FFFFFF">
            <g id="iconfinder_Arrow_Back_1063891" transform="translate(342.000000, 743.000000)">
                <path d="M45.2450909,14.5454545 L4.768,14.5454545 L16.8770909,2.48290909 C17.4458182,1.91418182 17.4458182,0.993454545 16.8770909,0.426181818 C16.3083636,-0.142545455 15.3876364,-0.142545455 14.8203636,0.426181818 L0.420363636,14.8247273 C-0.139636364,15.3847273 -0.139636364,16.3214545 0.420363636,16.8814545 L14.8203636,31.2814545 C15.3890909,31.8501818 16.3098182,31.8501818 16.8770909,31.2814545 C17.4458182,30.7127273 17.4458182,29.792 16.8770909,29.2247273 L4.768,17.4545455 L45.2450909,17.4545455 C46.048,17.4545455 46.6996364,16.8029091 46.6996364,16 C46.6996364,15.1970909 46.048,14.5454545 45.2450909,14.5454545 Z" id="Arrow_Back"></path>
            </g>
        </g>
    </g>
</svg>