<svg width="30px" height="30px" viewBox="0 0 30 30" version="1.1" xmlns="http://www.w3.org/2000/svg" xmlns:xlink="http://www.w3.org/1999/xlink">
    <!-- Generator: Sketch 51.3 (57544) - http://www.bohemiancoding.com/sketch -->
    <desc>Created with Sketch.</desc>
    <defs></defs>
    <g id="final" stroke="none" stroke-width="1" fill="none" fill-rule="evenodd">
        <g id="DATA-Summary" transform="translate(-874.000000, -755.000000)" fill="#EEEEEE" fill-rule="nonzero">
            <path d="M890.5,762.5 L887.5,762.5 L887.5,768.5 L881.5,768.5 L881.5,771.5 L887.5,771.5 L887.5,777.5 L890.5,777.5 L890.5,771.5 L896.5,771.5 L896.5,768.5 L890.5,768.5 L890.5,762.5 Z M889,755 C880.75,755 874,761.75 874,770 C874,778.25 880.75,785 889,785 C897.25,785 904,778.25 904,770 C904,761.75 897.25,755 889,755 Z M889,782 C882.4,782 877,776.6 877,770 C877,763.4 882.4,758 889,758 C895.6,758 901,763.4 901,770 C901,776.6 895.6,782 889,782 Z" id="Shape"></path>
        </g>
    </g>
</svg>